<?xml version="1.0" encoding="UTF-8"?>
<svg version="1.1" xmlns="http://www.w3.org/2000/svg" width="225" height="225">
<path d="M0 0 C74.25 0 148.5 0 225 0 C225 74.25 225 148.5 225 225 C150.75 225 76.5 225 0 225 C0 150.75 0 76.5 0 0 Z " fill="#FAE115" transform="translate(0,0)"/>
<path d="M0 0 C-0.33 1.98 -0.66 3.96 -1 6 C-1.99 5.34 -2.98 4.68 -4 4 C-18.76685263 2.80019322 -32.97926608 15.54204518 -43.7265625 24.1953125 C-46.95641248 26.98967709 -50.04141181 29.91813731 -53 33 C-52.67 30.69 -52.34 28.38 -52 26 C-56.91801085 30.69834783 -61.22338356 35.33507533 -65 41 C-66 38 -66 38 -64.8828125 35.43359375 C-55.88103763 20.09056858 -41.40503021 4.04375441 -24.125 -2 C-16.13343838 -3.99465233 -6.93564868 -4.9187152 0 0 Z " fill="#18987E" transform="translate(109,77)"/>
<path d="M0 0 C5 0 5 0 8 1 C8.66 0.67 9.32 0.34 10 0 C16.1726283 -0.45723173 16.1726283 -0.45723173 19.375 1.3125 C22.36984466 4.422531 22.18847142 7.76284008 22.25 11.875 C22.27578125 12.90367187 22.3015625 13.93234375 22.328125 14.9921875 C21.85146422 19.36157798 20.0628387 21.9371613 17 25 C14.31160615 25.26991906 11.70858064 25.08737357 9 25 C8.67 28.3 8.34 31.6 8 35 C5.36 35 2.72 35 0 35 C0 23.45 0 11.9 0 0 Z " fill="#267CAE" transform="translate(82,134)"/>
<path d="M0 0 C1.65 0 3.3 0 5 0 C8.00617269 3.00617269 7.59585316 5.82381598 8 10 C9.216875 9.896875 10.43375 9.79375 11.6875 9.6875 C15.40270949 9.661151 15.8711091 9.89304798 18.9375 12.4375 C19.9584375 13.7059375 19.9584375 13.7059375 21 15 C21.33 15.33 21.66 15.66 22 16 C22.63475939 22.37200776 22.14700072 27.40533206 19 33 C15.97455666 35.01696222 15.38932618 35.25811096 12 35.1875 C11.319375 35.18105469 10.63875 35.17460938 9.9375 35.16796875 C8 35 8 35 5 34 C3.35 34 1.7 34 0 34 C0 22.78 0 11.56 0 0 Z " fill="#217AB3" transform="translate(128,84)"/>
<path d="M0 0 C0.83144531 0.34933594 1.66289062 0.69867188 2.51953125 1.05859375 C3.60621094 1.51363281 4.69289063 1.96867187 5.8125 2.4375 C6.89144531 2.88996094 7.97039063 3.34242187 9.08203125 3.80859375 C20.54960824 8.4908039 37.02802322 7.53908907 48.73046875 3.65625 C51.24586244 2.92890725 53.39496514 2.88895056 56 3 C47.97789069 11.85662404 34.83375166 16.65324722 23.1640625 17.37890625 C21.4639443 17.43366491 19.76330232 17.4740796 18.0625 17.5 C16.85484985 17.52791626 16.85484985 17.52791626 15.62280273 17.55639648 C9.2516762 17.48786113 5.56105012 15.56105012 1 11 C-0.33034463 7.4080695 -0.07279423 3.78529987 0 0 Z " fill="#21AAD5" transform="translate(12,72)"/>
<path d="M0 0 C0.83402344 -0.02835938 1.66804688 -0.05671875 2.52734375 -0.0859375 C6.20155638 0.58210116 7.6212643 1.51551063 10.0625 4.375 C10.81590156 7.78704341 10.85303798 11.14035953 10.875 14.625 C10.90013672 15.56085938 10.92527344 16.49671875 10.95117188 17.4609375 C11.0099757 19.76604732 11.04630267 22.06926174 11.0625 24.375 C10.43601562 24.36339844 9.80953125 24.35179687 9.1640625 24.33984375 C7.93816406 24.32630859 7.93816406 24.32630859 6.6875 24.3125 C5.46933594 24.29509766 5.46933594 24.29509766 4.2265625 24.27734375 C2.01312858 24.23033666 2.01312858 24.23033666 0.0625 25.375 C-3.3125 25.75 -3.3125 25.75 -6.9375 25.375 C-9.4375 23.3125 -9.4375 23.3125 -10.9375 20.375 C-10.9375 16.68645707 -10.77053662 14.41629577 -8.4375 11.5 C-4.72295754 9.82845589 -0.97224934 9.62501652 3.0625 9.375 C3.0625 8.055 3.0625 6.735 3.0625 5.375 C-0.5675 6.035 -4.1975 6.695 -7.9375 7.375 C-8.2675 5.725 -8.5975 4.075 -8.9375 2.375 C-5.86957211 0.60367905 -3.53533613 0.05447359 0 0 Z " fill="#1C77B6" transform="translate(116.9375,133.625)"/>
<path d="M0 0 C3.58552881 1.63687185 4.79315055 2.68972583 7 6 C7.25760279 8.69452521 7.08900053 11.28548375 7 14 C2.38 14 -2.24 14 -7 14 C-6.34 15.98 -5.68 17.96 -5 20 C-1.7 19.34 1.6 18.68 5 18 C5.66 19.32 6.32 20.64 7 22 C2.98545962 25.55168749 -0.16821746 25.55150575 -5.36328125 25.43359375 C-9.16076487 24.80911867 -10.77559931 23.04001428 -13 20 C-13.33 19.67 -13.66 19.34 -14 19 C-14.12569503 16.8778002 -14.17576773 14.75088655 -14.1875 12.625 C-14.20167969 11.46226563 -14.21585937 10.29953125 -14.23046875 9.1015625 C-14 6 -14 6 -12 3 C-11.34 3 -10.68 3 -10 3 C-10 2.34 -10 1.68 -10 1 C-6.80876226 -0.59561887 -3.47254909 -0.3799142 0 0 Z " fill="#257BB0" transform="translate(118,94)"/>
<path d="M0 0 C1.99954746 -0.04254356 4.00041636 -0.04080783 6 0 C8.05922402 2.05922402 7.41427579 6.21708124 7.5625 9.0625 C7.60568359 9.82111328 7.64886719 10.57972656 7.69335938 11.36132812 C7.79973633 13.24065438 7.90039934 15.12030244 8 17 C10.31 17 12.62 17 15 17 C15 11.39 15 5.78 15 0 C16.65 0 18.3 0 20 0 C22 2 22 2 22.22705078 4.24658203 C22.21657715 5.15778809 22.20610352 6.06899414 22.1953125 7.0078125 C22.18886719 7.99394531 22.18242187 8.98007813 22.17578125 9.99609375 C22.15902344 11.02863281 22.14226562 12.06117187 22.125 13.125 C22.11597656 14.16527344 22.10695312 15.20554687 22.09765625 16.27734375 C22.07403747 18.85179092 22.04110149 21.42578212 22 24 C18.65747276 24.07427838 16.1964086 24.06546953 13 23 C12.34 23.33 11.68 23.66 11 24 C7.625 24.375 7.625 24.375 4 24 C1.49903874 21.83927552 0.1626356 20.12864579 -0.31591797 16.80761719 C-0.39365656 14.25596226 -0.34891275 11.73830757 -0.25 9.1875 C-0.23195312 8.30384766 -0.21390625 7.42019531 -0.1953125 6.50976562 C-0.14838513 4.33937457 -0.07664731 2.16954481 0 0 Z " fill="#1E78B4" transform="translate(153,95)"/>
<path d="M0 0 C0.97582031 0.05414063 1.95164063 0.10828125 2.95703125 0.1640625 C3.69308594 0.23367187 4.42914063 0.30328125 5.1875 0.375 C5.8475 1.695 6.5075 3.015 7.1875 4.375 C5.1875 6.375 5.1875 6.375 1.5625 6.5 C0.44875 6.45875 -0.665 6.4175 -1.8125 6.375 C-2.4725 8.355 -3.1325 10.335 -3.8125 12.375 C-1.1725 12.375 1.4675 12.375 4.1875 12.375 C4.1875 13.695 4.1875 15.015 4.1875 16.375 C1.5475 16.375 -1.0925 16.375 -3.8125 16.375 C-3.8125 22.645 -3.8125 28.915 -3.8125 35.375 C-6.1225 35.375 -8.4325 35.375 -10.8125 35.375 C-10.93676099 31.35506153 -11.02714411 27.33587721 -11.0871582 23.31445312 C-11.1121928 21.94869497 -11.14623218 20.58306933 -11.18969727 19.21777344 C-11.58680082 6.41702349 -11.58680082 6.41702349 -8.65625 2.46875 C-5.4029647 0.07347401 -3.98197475 -0.2878536 0 0 Z " fill="#1A77B6" transform="translate(173.8125,122.625)"/>
<path d="M0 0 C0.495 0.33 0.99 0.66 1.5 1 C1.5 2.65 1.5 4.3 1.5 6 C0.56027344 5.85691406 0.56027344 5.85691406 -0.3984375 5.7109375 C-1.21570313 5.60007813 -2.03296875 5.48921875 -2.875 5.375 C-3.68710938 5.25898438 -4.49921875 5.14296875 -5.3359375 5.0234375 C-6.05007812 5.01570312 -6.76421875 5.00796875 -7.5 5 C-9.9282022 6.99557113 -9.9282022 6.99557113 -9.8125 10.9375 C-9.72717729 13.40736792 -9.58651368 14.82156553 -8.5 17.0625 C-5.13210163 18.64120236 -2.09935948 17.64906482 1.5 17 C1.625 19.375 1.625 19.375 1.5 22 C-0.5 24 -0.5 24 -2.48828125 24.265625 C-10.74277457 24.21013261 -10.74277457 24.21013261 -14.5 22 C-18.45732669 17.82928805 -18.17538677 13.66108349 -18.0390625 8.15234375 C-17.46642307 4.80364793 -16.9302186 3.50120127 -14.5 1.1875 C-9.81299351 -1.97836848 -5.2759376 -2.11037504 0 0 Z " fill="#237AB2" transform="translate(210.5,135)"/>
<path d="M0 0 C1.14662109 -0.00773438 1.14662109 -0.00773438 2.31640625 -0.015625 C4.4375 0.25 4.4375 0.25 7.4375 2.25 C7.1075 3.9 6.7775 5.55 6.4375 7.25 C5.49777344 7.10691406 5.49777344 7.10691406 4.5390625 6.9609375 C3.72179687 6.85007813 2.90453125 6.73921875 2.0625 6.625 C1.25039062 6.50898438 0.43828125 6.39296875 -0.3984375 6.2734375 C-1.11257812 6.26570312 -1.82671875 6.25796875 -2.5625 6.25 C-4.98772207 8.67522207 -4.85879254 9.4220679 -4.875 12.75 C-4.89175781 13.5440625 -4.90851563 14.338125 -4.92578125 15.15625 C-4.80589844 15.8471875 -4.68601563 16.538125 -4.5625 17.25 C-1.31323878 19.41617415 -0.9639758 19.46335669 2.625 18.875 C3.883125 18.66875 5.14125 18.4625 6.4375 18.25 C6.7675 19.9 7.0975 21.55 7.4375 23.25 C3.1942553 26.0788298 -0.57984529 25.90268001 -5.5625 25.25 C-9.21943859 23.11678582 -10.96360861 21.10819445 -12.5625 17.25 C-13.23586584 12.43465124 -13.28869338 8.49490293 -10.8125 4.25 C-7.33380143 1.1578235 -4.66666442 -0.03158487 0 0 Z " fill="#247BB2" transform="translate(142.5625,133.75)"/>
<path d="M0 0 C1.80078125 1.28515625 1.80078125 1.28515625 3 3 C3 4.32 3 5.64 3 7 C2.30132812 6.96519531 1.60265625 6.93039063 0.8828125 6.89453125 C-0.02726562 6.86746094 -0.93734375 6.84039062 -1.875 6.8125 C-2.77992187 6.77769531 -3.68484375 6.74289063 -4.6171875 6.70703125 C-5.40351562 6.80371094 -6.18984375 6.90039062 -7 7 C-9.31332486 10.46998729 -9.33957563 11.92509248 -9 16 C-8.34 16.99 -7.68 17.98 -7 19 C-4.03 18.67 -1.06 18.34 2 18 C2.33 19.65 2.66 21.3 3 23 C-1.2258785 25.81725233 -5.03624688 25.79958384 -10 25 C-12.82424288 22.80977082 -14.41508603 21.16982793 -16 18 C-16.5614411 13.25262462 -17.069808 8.30029863 -15.01171875 3.875 C-11.0570398 -0.75921533 -5.77408513 -1.28202579 0 0 Z " fill="#237AB2" transform="translate(99,94)"/>
<path d="M0 0 C2.85651897 1.29004082 4.75897754 2.64447037 6.9375 4.875 C14.77064192 11.72063044 26.00415309 12.6397893 36 13 C35 15 35 15 33.05859375 16.10546875 C28.70927875 17.37749063 24.5708851 17.32891801 20.0625 17.3125 C19.18142578 17.32861328 18.30035156 17.34472656 17.39257812 17.36132812 C10.97174381 17.36613774 7.02158854 15.9878872 1.625 12.4375 C-0.95524112 8.56713833 -0.31039388 4.51795539 0 0 Z " fill="#23AAD5" transform="translate(24,58)"/>
<path d="M0 0 C0.66 0.33 1.32 0.66 2 1 C-0.17057126 5.98146104 -3.85529083 8.64243728 -8 12 C-9.13501953 12.99386719 -9.13501953 12.99386719 -10.29296875 14.0078125 C-16.15813418 18.73438954 -20.62705323 19.75403411 -28.1171875 19.63671875 C-31.60752955 18.86581664 -32.94883001 17.9118368 -35 15 C-34.75 12.75 -34.75 12.75 -34 11 C-33.39414062 11.03480469 -32.78828125 11.06960937 -32.1640625 11.10546875 C-21.39849283 11.45327946 -13.64681335 8.16077686 -4.64550781 2.60546875 C-3.12890933 1.68239589 -1.5672508 0.83418188 0 0 Z " fill="#1DA9D8" transform="translate(61,83)"/>
<path d="M0 0 C2.42479736 3.63719605 2.38662577 5.85703482 2.625 10.1875 C2.69976562 11.45980469 2.77453125 12.73210937 2.8515625 14.04296875 C2.90054688 15.01878906 2.94953125 15.99460937 3 17 C2.34 17 1.68 17 1 17 C1.33 17.99 1.66 18.98 2 20 C1.34 20 0.68 20 0 20 C-0.33 18.68 -0.66 17.36 -1 16 C-1.61488281 16.11859375 -2.22976562 16.2371875 -2.86328125 16.359375 C-5.27922224 16.74469254 -7.55260147 17.0216968 -10 17 C-12.0625 15.4375 -12.0625 15.4375 -13 13 C-13.41407022 9.68743824 -13.30225246 7.67562315 -11.9375 4.625 C-10 3 -10 3 -6.5 2.6875 C-3 3 -3 3 0 4 C0 2.68 0 1.36 0 0 Z " fill="#ECDA1F" transform="translate(102,97)"/>
<path d="M0 0 C0.33 0 0.66 0 1 0 C1 6.6 1 13.2 1 20 C0.34 18.68 -0.32 17.36 -1 16 C-2.2375 16.226875 -3.475 16.45375 -4.75 16.6875 C-7.49314608 17.00364272 -8.85222698 17.05172056 -11.5 16.125 C-13.59244827 13.16069828 -13.43952263 10.71357664 -13.43359375 7.15625 C-12.9019773 4.51253574 -12.14783091 3.59697546 -10 2 C-6.56797729 1.71399811 -4.27570125 1.90809958 -1 3 C-0.67 2.01 -0.34 1.02 0 0 Z " fill="#EBDA21" transform="translate(150,137)"/>
<path d="M0 0 C0.89203125 0.21269531 1.7840625 0.42539063 2.703125 0.64453125 C3.37859375 0.82371094 4.0540625 1.00289062 4.75 1.1875 C5.11923077 6.72596154 5.11923077 6.72596154 3.25 9.0625 C2.755 9.43375 2.26 9.805 1.75 10.1875 C3.07 10.8475 4.39 11.5075 5.75 12.1875 C1.62877002 14.18567211 -1.68763877 14.76816416 -6.25 14.1875 C-8.75 12.125 -8.75 12.125 -10.25 9.1875 C-10.25 5.41834985 -10.21586635 3.16859397 -7.515625 0.42578125 C-4.56907385 -1.18466136 -3.21436795 -0.80359199 0 0 Z " fill="#297DAE" transform="translate(116.25,144.8125)"/>
<path d="M0 0 C2.375 -0.125 2.375 -0.125 5 0 C7 2 7 2 7.22705078 4.24658203 C7.21134033 5.61339111 7.21134033 5.61339111 7.1953125 7.0078125 C7.18564453 8.48701172 7.18564453 8.48701172 7.17578125 9.99609375 C7.15902344 11.02863281 7.14226562 12.06117187 7.125 13.125 C7.11597656 14.16527344 7.10695312 15.20554687 7.09765625 16.27734375 C7.07403747 18.85179092 7.04110149 21.42578212 7 24 C1.296875 24.25 1.296875 24.25 -1.375 22 C-1.91125 21.34 -2.4475 20.68 -3 20 C-2.34 19.34 -1.68 18.68 -1 18 C-0.63168919 16.06742145 -0.63168919 16.06742145 -0.5859375 13.8671875 C-0.54726562 13.06152344 -0.50859375 12.25585938 -0.46875 11.42578125 C-0.4378125 10.58402344 -0.406875 9.74226563 -0.375 8.875 C-0.33632812 8.02550781 -0.29765625 7.17601563 -0.2578125 6.30078125 C-0.16343506 4.20088316 -0.08062414 2.10047109 0 0 Z " fill="#2B7EB0" transform="translate(168,95)"/>
<path d="M0 0 C0.495 1.485 0.495 1.485 1 3 C-9.40636226 9.31279324 -18.40558663 14.60416519 -30.96875 14.0078125 C-33.06987213 13.84716508 -33.06987213 13.84716508 -35 15 C-35 14.01 -35 13.02 -35 12 C-34.34 12 -33.68 12 -33 12 C-33.33 10.68 -33.66 9.36 -34 8 C-33.14019531 7.97421875 -32.28039062 7.9484375 -31.39453125 7.921875 C-20.71992071 7.40967995 -9.37295041 0 0 0 Z " fill="#E2DA2C" transform="translate(60,81)"/>
<path d="M0 0 C2.375 -0.125 2.375 -0.125 5 0 C7 2 7 2 7.22705078 4.24658203 C7.21657715 5.15778809 7.20610352 6.06899414 7.1953125 7.0078125 C7.18886719 7.99394531 7.18242187 8.98007813 7.17578125 9.99609375 C7.15902344 11.02863281 7.14226562 12.06117188 7.125 13.125 C7.11597656 14.16527344 7.10695312 15.20554688 7.09765625 16.27734375 C7.07403747 18.85179092 7.04110149 21.42578212 7 24 C5.00045254 24.04254356 2.99958364 24.04080783 1 24 C0 23 0 23 -0.11352539 20.77514648 C-0.10828857 19.81680908 -0.10305176 18.85847168 -0.09765625 17.87109375 C-0.09443359 16.83662109 -0.09121094 15.80214844 -0.08789062 14.73632812 C-0.07951172 13.64771484 -0.07113281 12.55910156 -0.0625 11.4375 C-0.05798828 10.34501953 -0.05347656 9.25253906 -0.04882812 8.12695312 C-0.03699826 5.41791505 -0.02051543 2.70898401 0 0 Z " fill="#267CAE" transform="translate(152,134)"/>
<path d="M0 0 C2.375 -0.125 2.375 -0.125 5 0 C7 2 7 2 7.22705078 4.24658203 C7.21657715 5.15778809 7.20610352 6.06899414 7.1953125 7.0078125 C7.18886719 7.99394531 7.18242187 8.98007813 7.17578125 9.99609375 C7.15902344 11.02863281 7.14226562 12.06117188 7.125 13.125 C7.11597656 14.16527344 7.10695312 15.20554688 7.09765625 16.27734375 C7.07403747 18.85179092 7.04110149 21.42578212 7 24 C4.625 24.125 4.625 24.125 2 24 C0 22 0 22 -0.22705078 19.75341797 C-0.21657715 18.84221191 -0.20610352 17.93100586 -0.1953125 16.9921875 C-0.18886719 16.00605469 -0.18242187 15.01992187 -0.17578125 14.00390625 C-0.15902344 12.97136719 -0.14226562 11.93882812 -0.125 10.875 C-0.11597656 9.83472656 -0.10695312 8.79445312 -0.09765625 7.72265625 C-0.07403747 5.14820908 -0.04110149 2.57421788 0 0 Z " fill="#1F79B3" transform="translate(183,135)"/>
<path d="M0 0 C0.73283203 -0.01611328 1.46566406 -0.03222656 2.22070312 -0.04882812 C6.70968725 -0.0528759 9.87322509 0.30737419 13.3125 3.3125 C13.3125 4.6325 13.3125 5.9525 13.3125 7.3125 C12.013125 7.126875 10.71375 6.94125 9.375 6.75 C7.22674457 6.4143371 7.22674457 6.4143371 5.3125 6.3125 C4.9825 6.6425 4.6525 6.9725 4.3125 7.3125 C2.64632885 7.35313832 0.97861905 7.355221 -0.6875 7.3125 C-1.0175 6.6525 -1.3475 5.9925 -1.6875 5.3125 C-7.9575 5.3125 -14.2275 5.3125 -20.6875 5.3125 C-14.23869763 0.47589822 -7.81064591 -0.03490012 0 0 Z " fill="#17987E" transform="translate(85.6875,64.6875)"/>
<path d="M0 0 C2.5625 0.1875 2.5625 0.1875 4.5625 2.1875 C4.828125 4.5 4.828125 4.5 4.8125 7.1875 C4.81765625 8.074375 4.8228125 8.96125 4.828125 9.875 C4.5625 12.1875 4.5625 12.1875 2.5625 14.1875 C0 14.375 0 14.375 -2.4375 14.1875 C-3.4375 13.1875 -3.4375 13.1875 -3.5703125 10.5 C-3.56773438 9.406875 -3.56515625 8.31375 -3.5625 7.1875 C-3.56507812 6.094375 -3.56765625 5.00125 -3.5703125 3.875 C-3.39170875 0.26090067 -3.39170875 0.26090067 0 0 Z " fill="#EDDB1C" transform="translate(92.4375,138.8125)"/>
<path d="M0 0 C3.25696479 0.41755959 4.63443291 0.63443291 7 3 C7.01171875 5.34765625 7.01171875 5.34765625 6.6875 8.0625 C6.58824219 8.96097656 6.48898438 9.85945313 6.38671875 10.78515625 C6 13 6 13 5 14 C3.00041636 14.04080783 0.99954746 14.04254356 -1 14 C-1.02685938 11.85423363 -1.04633088 9.70837355 -1.0625 7.5625 C-1.07410156 6.36753906 -1.08570313 5.17257813 -1.09765625 3.94140625 C-1 1 -1 1 0 0 Z " fill="#F3DF16" transform="translate(136,99)"/>
<path d="M0 0 C0.94875 0.04125 1.8975 0.0825 2.875 0.125 C3 2.5 3 2.5 2.875 5.125 C0.875 7.125 0.875 7.125 -1.75 7.25 C-2.53375 7.20875 -3.3175 7.1675 -4.125 7.125 C-4.75 4.75 -4.75 4.75 -5.125 2.125 C-3.125 0.125 -3.125 0.125 0 0 Z " fill="#E9D924" transform="translate(118.125,146.875)"/>
<path d="M0 0 C2.625 0.375 2.625 0.375 5 1 C6.125 4.75 6.125 4.75 5 7 C3.02 7 1.04 7 -1 7 C-1.625 4.625 -1.625 4.625 -2 2 C-1.34 1.34 -0.68 0.68 0 0 Z " fill="#2F80AB" transform="translate(184,123)"/>
<path d="M0 0 C1.65 0.33 3.3 0.66 5 1 C5.38218767 2.65614657 5.71395102 4.32457024 6 6 C5 7 5 7 2.4375 7.0625 C1.2309375 7.0315625 1.2309375 7.0315625 0 7 C-1.125 2.25 -1.125 2.25 0 0 Z " fill="#257BB2" transform="translate(153,123)"/>
<path d="M0 0 C2.375 -0.125 2.375 -0.125 5 0 C7 2 7 2 7 5 C4.36 5 1.72 5 -1 5 C-0.67 3.35 -0.34 1.7 0 0 Z " fill="#E0D527" transform="translate(112,99)"/>
<path d="M0 0 C2.1875 -0.25 2.1875 -0.25 5 0 C6.65 1.32 8.3 2.64 10 4 C5.38 4 0.76 4 -4 4 C-3.01 3.67 -2.02 3.34 -1 3 C-0.67 2.01 -0.34 1.02 0 0 Z " fill="#EEDC1D" transform="translate(91,70)"/>
<path d="M0 0 C0.99 0.66 1.98 1.32 3 2 C-4.92 2.495 -4.92 2.495 -13 3 C-7.68897452 -0.98326911 -6.45759215 -1.24620199 0 0 Z " fill="#3FA56D" transform="translate(78,67)"/>
<path d="M0 0 C0 2.64 0 5.28 0 8 C-0.66 8 -1.32 8 -2 8 C-2 10.64 -2 13.28 -2 16 C-2.33 16 -2.66 16 -3 16 C-3 11.05 -3 6.1 -3 1 C-1 0 -1 0 0 0 Z " fill="#DFD525" transform="translate(130,141)"/>
<path d="M0 0 C4.62 0 9.24 0 14 0 C14 1.32 14 2.64 14 4 C12.22825181 3.91276622 10.45752623 3.80458345 8.6875 3.6875 C7.70136719 3.62949219 6.71523438 3.57148437 5.69921875 3.51171875 C3 3 3 3 0 0 Z " fill="#D8D736" transform="translate(37,75)"/>
<path d="M0 0 C0.33 0.99 0.66 1.98 1 3 C0.01 4.485 0.01 4.485 -1 6 C-1.66 6 -2.32 6 -3 6 C-4.37310707 7.29233607 -5.71034824 8.62437146 -7 10 C-7.66 9.67 -8.32 9.34 -9 9 C-6.03 6.03 -3.06 3.06 0 0 Z " fill="#DCD726" transform="translate(57,102)"/>
<path d="M0 0 C0.66 0.33 1.32 0.66 2 1 C0.95125002 3.62187494 0.35068687 4.79371361 -2.125 6.25 C-2.74375 6.4975 -3.3625 6.745 -4 7 C-4 6.34 -4 5.68 -4 5 C-4.66 4.67 -5.32 4.34 -6 4 C-4.02 2.68 -2.04 1.36 0 0 Z " fill="#55B6B0" transform="translate(61,83)"/>
<path d="M0 0 C0 1.32 0 2.64 0 4 C-2.91517292 2.92598892 -4.77810176 2.22189824 -7 0 C-4.3333581 -1.33332095 -2.83319697 -0.67102033 0 0 Z " fill="#239D78" transform="translate(99,68)"/>
<path d="M0 0 C0.33 0.99 0.66 1.98 1 3 C-0.98 3.99 -0.98 3.99 -3 5 C-3.99 4.01 -4.98 3.02 -6 2 C-2.25 0 -2.25 0 0 0 Z " fill="#E9DC22" transform="translate(60,81)"/>
<path d="M0 0 C2.64 0 5.28 0 8 0 C8 0.99 8 1.98 8 3 C5.125 3.1875 5.125 3.1875 2 3 C1.34 2.01 0.68 1.02 0 0 Z " fill="#DED32F" transform="translate(112,139)"/>
<path d="M0 0 C0.66 1.32 1.32 2.64 2 4 C0.35 5.65 -1.3 7.3 -3 9 C-2.44271087 5.65626525 -1.64826111 2.96687001 0 0 Z " fill="#36A270" transform="translate(46,109)"/>
</svg>
